{
  "title": "Fear the Walking Dead S02E15 1080p WEB-DL HEVC DD5.1 x265",
  "uid": 15944850,
  "size": 785009475,
  "categoryP": "video",
  "categoryS": "hd___tv_shows",
  "magnet": "?xt=urn:btih:3ad99fef2d6a289ea079f4efe6bcc92f9383772f&amp;dn=Fear+the+Walking+Dead+S02E15+1080p+WEB-DL+HEVC+DD5.1+x265&amp;tr=udp%3A%2F%2Ftracker.leechers-paradise.org%3A6969&amp;tr=udp%3A%2F%2Fzer0day.ch%3A1337&amp;tr=udp%3A%2F%2Fopen.demonii.com%3A1337&amp;tr=udp%3A%2F%2Ftracker.coppersurfer.tk%3A6969&amp;tr=udp%3A%2F%2Fexodus.desync.com%3A6969",
  "seeders": 117,
  "leechers": 22,
  "uploader": "nayhtut",
  "files": 1,
  "time": 1475496464,
  "description": "Source:Fear the Walking Dead S02E15 1080p WEB-DL DD5 1 H264-RARBG(1.77 GB)\r\n\r\n\r\nComplete name: Fear.the.Walking.Dead.S02E15.1080p.WEB-DL.HEVC.DD5.1.x265.mkv\r\nFormat                                   : Matroska\r\nFormat version                           : Version 4 / Version 2\r\nFile size                                : 749 MiB\r\nDuration                                 : 45mn 43s\r\nOverall bit rate                         : 2 289 Kbps\r\nWriting application                      : Lavf57.25.100\r\nWriting library                          : Lavf57.25.100\r\n\r\nVideo\r\n\r\nID                                       : 1\r\nFormat                                   : V_MPEGH/ISO/HEVC\r\nCodec ID                                 : V_MPEGH/ISO/HEVC\r\nDuration                                 : 45mn 43s\r\nBit rate                                 : 1 859 Kbps\r\nWidth                                    : 1 916 pixels\r\nHeight                                   : 1 076 pixels\r\nDisplay aspect ratio                     : 16:9\r\nFrame rate                               : 25.000 fps\r\nBits/(Pixel*Frame)                       : 0.036\r\nStream size                              : 608 MiB (81%)\r\nWriting library                          : Lavc57.48.101 libx265\r\nLanguage                                 : English\r\nDefault                                  : Yes\r\nForced                                   : No\r\nDURATION                                 : 00:45:43.731000000\r\n\r\nAudio\r\n\r\nID                                       : 2\r\nFormat                                   : AC-3\r\nFormat/Info                              : Audio Coding 3\r\nMode extension                           : CM (complete main)\r\nFormat settings, Endianness              : Big\r\nCodec ID                                 : A_AC3\r\nDuration                                 : 45mn 43s\r\nBit rate mode                            : Constant\r\nBit rate                                 : 384 Kbps\r\nChannel(s)                               : 6 channels\r\nChannel positions                        : Front: L C R, Side: L R, LFE\r\nSampling rate                            : 48.0 KHz\r\nBit depth                                : 16 bits\r\nCompression mode                         : Lossy\r\nStream size                              : 126 MiB (17%)\r\nWriting library                          : Lavc57.24.102 ac3\r\nLanguage                                 : English\r\nDefault                                  : Yes\r\nForced                                   : No\r\nDURATION                                 : 00:45:43.775000000\r\n\r\nText\r\n\r\nID                                       : 3\r\nFormat                                   : ASS\r\nCodec ID                                 : S_TEXT/ASS\r\nLanguage                                 : English\r\nDefault                                  : Yes",
  "parsed": {
    "xt": "urn:btih:3ad99fef2d6a289ea079f4efe6bcc92f9383772f",
    "dn": "Fear the Walking Dead S02E15 1080p WEB-DL HEVC DD5.1 x265",
    "tr": [
      "udp://exodus.desync.com:6969",
      "udp://open.demonii.com:1337",
      "udp://tracker.coppersurfer.tk:6969",
      "udp://tracker.leechers-paradise.org:6969",
      "udp://zer0day.ch:1337"
    ],
    "infoHash": "3ad99fef2d6a289ea079f4efe6bcc92f9383772f",
    "infoHashBuffer": {
      "type": "Buffer",
      "data": [
        58,
        217,
        159,
        239,
        45,
        106,
        40,
        158,
        160,
        121,
        244,
        239,
        230,
        188,
        201,
        47,
        147,
        131,
        119,
        47
      ]
    },
    "name": "Fear the Walking Dead S02E15 1080p WEB-DL HEVC DD5.1 x265",
    "announce": [
      "udp://exodus.desync.com:6969",
      "udp://open.demonii.com:1337",
      "udp://tracker.coppersurfer.tk:6969",
      "udp://tracker.leechers-paradise.org:6969",
      "udp://zer0day.ch:1337"
    ],
    "urlList": []
  },
  "previous": 139,
  "peers": 83,
  "last_updated": "2016-12-24T22:34:19.559Z"
}